<svg width="128" height="39" viewBox="0 0 128 39" fill="none" xmlns="http://www.w3.org/2000/svg">
    <path d="M6.084 21.404C6.084 23.492 6.972 24.536 8.748 24.536C10.692 24.536 12 23.864 12.672 22.52C12.912 22.04 13.032 21.428 13.032 20.684C13.032 19.916 12.852 19.208 12.492 18.56C11.892 17.528 10.86 16.388 9.396 15.14C6.972 13.076 5.76 10.94 5.76 8.732C5.76 6.5 6.456 4.784 7.848 3.584C9.24 2.384 10.836 1.784 12.636 1.784C14.436 1.784 15.864 2.24 16.92 3.152C17.976 4.064 18.504 5.432 18.504 7.256C18.504 8.456 18.096 9.5 17.28 10.388C16.488 11.276 15.432 11.828 14.112 12.044C14.712 12.548 15.312 13.064 15.912 13.592C16.488 14.12 17.016 14.696 17.496 15.32C18.552 16.736 19.08 18.428 19.08 20.396C19.08 21.764 18.756 23 18.108 24.104C17.484 25.208 16.656 26.144 15.624 26.912C14.616 27.656 13.476 28.232 12.204 28.64C10.932 29.048 9.744 29.252 8.64 29.252C6.288 29.252 4.464 28.712 3.168 27.632C1.656 26.408 0.9 24.644 0.9 22.34C0.9 20.828 1.392 19.364 2.376 17.948C3.36 16.532 4.404 15.824 5.508 15.824C6.372 15.824 6.804 16.088 6.804 16.616C6.804 17.384 6.684 18.152 6.444 18.92C6.204 19.664 6.084 20.492 6.084 21.404ZM13.068 11.18C14.436 9.812 15.12 8.384 15.12 6.896C15.12 6.44 14.88 6.056 14.4 5.744C13.872 5.456 13.32 5.312 12.744 5.312C11.448 5.312 10.512 5.732 9.936 6.572C10.224 7.604 10.644 8.48 11.196 9.2C11.772 9.92 12.396 10.58 13.068 11.18ZM32.2673 13.988C34.8113 13.988 37.1633 14.012 39.3233 14.06C40.4513 9.5 41.5553 6.332 42.6353 4.556C43.3553 3.524 44.0753 2.78 44.7953 2.324C45.0833 2.132 45.3713 2.036 45.6593 2.036C45.9713 2.036 46.1273 2.504 46.1273 3.44C46.1273 4.376 46.0433 5.36 45.8753 6.392C45.7313 7.424 45.5393 8.612 45.2993 9.956C44.5073 14.372 43.9073 17.9 43.4993 20.54C43.1153 23.18 42.9233 25.724 42.9233 28.172C42.9233 28.844 42.4433 29.18 41.4833 29.18C39.9713 29.18 38.9393 28.892 38.3873 28.316C37.8353 27.716 37.5593 26.648 37.5593 25.112C37.5593 23.552 37.8713 21.104 38.4953 17.768C35.8553 17.648 34.1873 17.588 33.4913 17.588H32.0153C31.7513 17.588 31.4873 17.6 31.2233 17.624C30.1433 21.752 29.6033 25.016 29.6033 27.416C29.6033 28.832 28.2233 29.54 25.4633 29.54C24.8633 29.54 24.5033 29.24 24.3833 28.64C24.2873 28.016 24.2393 27.02 24.2393 25.652C24.2393 24.26 24.6713 21.776 25.5353 18.2C24.0713 18.416 23.0033 18.524 22.3313 18.524C22.0193 18.524 21.8633 18.404 21.8633 18.164C21.8633 17.636 22.2473 17.036 23.0153 16.364C23.8073 15.692 24.9593 15.152 26.4713 14.744C27.3593 11.672 28.2473 9.152 29.1353 7.184C26.5433 7.232 24.6353 7.736 23.4113 8.696C23.0273 8.984 22.7153 9.248 22.4753 9.488C22.2353 9.704 22.0193 9.812 21.8273 9.812C21.6593 9.812 21.4913 9.668 21.3233 9.38C21.1553 9.092 21.0713 8.708 21.0713 8.228C21.0713 6.476 22.5473 5.144 25.4993 4.232C27.8513 3.512 30.5873 3.14 33.7073 3.116H33.7793C33.9473 3.116 34.1753 3.212 34.4633 3.404C34.7753 3.596 34.9313 3.908 34.9313 4.34C34.9313 4.772 34.8473 5.264 34.6793 5.816C34.5353 6.344 34.3313 6.74 34.0673 7.004C33.9233 8.132 33.3233 10.46 32.2673 13.988ZM54.0048 28.172C54.0048 28.844 53.5248 29.18 52.5648 29.18C51.0528 29.18 50.0208 28.892 49.4688 28.316C48.9168 27.716 48.6408 26.72 48.6408 25.328C48.6648 23.168 49.2528 19.712 50.4048 14.96C51.5808 10.208 52.6848 6.68 53.7168 4.376C53.9808 3.776 54.3528 3.212 54.8328 2.684C55.3128 2.132 55.9488 1.856 56.7408 1.856C57.0768 1.856 57.3528 2.06 57.5688 2.468C57.8088 2.876 57.9288 3.344 57.9288 3.872C57.9288 4.4 57.8328 5.192 57.6408 6.248C57.4488 7.28 57.2088 8.468 56.9208 9.812C56.6328 11.156 56.3088 12.608 55.9488 14.168C54.6528 20.096 54.0048 24.764 54.0048 28.172ZM66.3573 27.416C66.3573 28.832 64.9773 29.54 62.2173 29.54C61.6173 29.54 61.2573 29.24 61.1373 28.64C61.0413 28.016 60.9933 27.152 60.9933 26.048C60.9933 23.72 61.4613 20.84 62.3973 17.408C63.9573 11.744 65.6253 8.408 67.4013 7.4C67.6413 7.256 67.9053 7.184 68.1933 7.184C68.4813 7.184 68.6253 7.652 68.6253 8.588C68.6253 9.524 68.5773 10.352 68.4813 11.072C68.2893 12.512 67.9413 14.372 67.4373 16.652C66.9573 18.932 66.7173 20.276 66.7173 20.684L66.3573 27.416ZM68.8053 17.732C68.8053 17.42 68.9733 17.216 69.3093 17.12C69.6693 17.024 70.1133 16.94 70.6413 16.868C71.1693 16.772 71.7453 16.64 72.3693 16.472C72.9933 16.304 73.5693 15.992 74.0973 15.536C75.3213 14.48 75.9333 12.716 75.9333 10.244C75.9333 8.66 75.3933 7.448 74.3133 6.608C73.2573 5.768 71.7213 5.348 69.7053 5.348C67.7133 5.348 65.8413 5.768 64.0893 6.608C63.4413 6.92 62.8533 7.208 62.3253 7.472C61.8213 7.736 61.3533 7.868 60.9213 7.868C60.4893 7.868 60.2733 7.736 60.2733 7.472C60.2733 7.064 60.6693 6.392 61.4613 5.456C62.2533 4.592 63.5013 3.788 65.2053 3.044C66.9333 2.3 68.7453 1.928 70.6413 1.928C74.2173 1.904 77.0013 2.744 78.9933 4.448C80.7213 5.936 81.5853 7.868 81.5853 10.244C81.5853 12.596 80.7333 14.708 79.0293 16.58C77.3253 18.428 75.1893 19.352 72.6213 19.352C70.0773 19.352 68.8053 18.812 68.8053 17.732ZM85.5563 29.108C83.1563 29.108 81.9563 26.864 81.9563 22.376C81.9563 19.928 82.2563 17.708 82.8563 15.716C83.7923 12.644 84.8483 11.108 86.0243 11.108C86.7203 11.108 87.2723 11.576 87.6803 12.512C88.0163 13.232 88.1723 13.94 88.1483 14.636C88.1483 15.596 87.8603 17.288 87.2843 19.712C86.7323 21.824 86.4563 23.132 86.4563 23.636C86.4563 24.14 86.5763 24.488 86.8163 24.68C87.0803 24.872 87.3803 24.968 87.7163 24.968C88.0763 24.968 88.5203 24.74 89.0483 24.284C89.5763 23.828 90.1043 23.336 90.6323 22.808C91.1603 22.256 91.6403 21.752 92.0723 21.296C92.5283 20.84 92.8403 20.612 93.0083 20.612C93.3443 20.612 93.5123 21.02 93.5123 21.836C93.5123 23.516 92.6603 25.16 90.9563 26.768C89.2763 28.352 87.4763 29.132 85.5563 29.108ZM87.0323 8.192C86.3843 7.232 86.0603 6.2 86.0603 5.096C86.0603 3.992 86.2283 3.08 86.5643 2.36C86.9243 1.616 87.2603 1.076 87.5723 0.739999C87.8843 0.379999 88.2443 0.2 88.6523 0.2C89.3243 0.2 89.9362 0.704 90.4883 1.712C91.0403 2.696 91.3163 3.524 91.3163 4.196C91.3163 5.444 90.8723 6.428 89.9843 7.148C89.1203 7.844 88.1363 8.192 87.0323 8.192ZM92.3968 10.676C92.3968 10.244 92.5528 10.028 92.8648 10.028C93.3448 10.028 93.8368 10.136 94.3408 10.352C94.8448 10.544 95.3848 10.7 95.9608 10.82C97.8808 6.716 100.089 4.04 102.585 2.792C103.449 2.36 104.313 2.144 105.177 2.144C106.785 2.168 107.865 2.552 108.417 3.296C108.993 4.04 109.281 5 109.281 6.176C109.257 8.408 108.297 10.172 106.401 11.468C104.505 12.74 102.189 13.448 99.4528 13.592C98.7568 15.44 98.2168 17.408 97.8328 19.496C98.7688 19.136 99.9688 18.956 101.433 18.956C101.625 20.468 101.961 21.548 102.441 22.196C102.921 22.844 103.449 23.168 104.025 23.168C104.625 23.168 105.117 23.024 105.501 22.736C105.909 22.448 106.257 22.124 106.545 21.764C106.857 21.404 107.109 21.08 107.301 20.792C107.517 20.504 107.721 20.36 107.913 20.36C108.321 20.36 108.525 20.72 108.525 21.44C108.525 22.88 108.165 24.08 107.445 25.04C106.725 25.976 105.621 26.444 104.133 26.444C101.805 26.444 100.149 25.832 99.1648 24.608C99.6928 29.888 99.9568 33.032 99.9568 34.04C99.9568 35.84 99.3928 37.124 98.2648 37.892C97.3288 38.54 96.1288 38.864 94.6648 38.864C93.2248 38.864 92.2168 38.528 91.6408 37.856C91.0888 37.208 90.8128 36.428 90.8128 35.516C90.8128 29.732 91.6408 23.912 93.2968 18.056C93.8248 16.184 94.4248 14.432 95.0968 12.8C93.2968 12.008 92.3968 11.3 92.3968 10.676ZM95.9968 36.092C96.2848 36.092 96.5488 35.864 96.7888 35.408C97.0288 34.976 97.1488 34.508 97.1488 34.004C97.1488 32.348 96.9208 29.804 96.4648 26.372C95.8648 28.844 95.4568 31.304 95.2408 33.752C95.1928 34.28 95.1688 34.604 95.1688 34.724C95.1688 35.636 95.4448 36.092 95.9968 36.092ZM104.889 5.708C104.409 5.708 103.749 6.164 102.909 7.076C102.093 7.988 101.253 9.38 100.389 11.252C102.141 10.484 103.293 9.896 103.845 9.488C104.973 8.696 105.537 7.748 105.537 6.644C105.537 6.02 105.321 5.708 104.889 5.708ZM116.409 26.372C115.209 28.028 113.601 28.856 111.585 28.856C109.953 28.856 108.645 28.52 107.661 27.848C106.701 27.152 106.221 26.06 106.221 24.572C106.221 23.948 106.305 23.372 106.473 22.844C106.665 22.316 106.965 21.668 107.373 20.9L108.417 12.368C109.161 11.792 110.169 11.504 111.441 11.504C112.521 11.504 113.133 12.224 113.277 13.664C113.325 14.096 113.349 14.612 113.349 15.212C113.349 15.788 113.253 16.4 113.061 17.048C112.101 20.36 111.633 22.58 111.657 23.708C111.657 24.572 112.161 25.004 113.169 25.004C114.177 25.004 114.921 24.68 115.401 24.032C115.881 23.384 116.289 22.58 116.625 21.62C117.249 18.956 117.825 16.76 118.353 15.032C118.905 13.304 119.253 12.272 119.397 11.936C119.637 11.36 120.093 11.06 120.765 11.036C121.437 11.06 122.073 11.54 122.673 12.476C123.273 13.388 123.573 14.096 123.573 14.6C123.525 16.28 122.481 20.516 120.441 27.308C122.001 26.084 123.549 24.584 125.085 22.808C125.613 22.184 126.057 21.668 126.417 21.26C126.777 20.828 127.065 20.612 127.281 20.612C127.617 20.612 127.785 20.996 127.785 21.764C127.785 23.276 126.933 25.04 125.229 27.056C123.549 29.072 121.485 30.644 119.037 31.772C118.749 32.732 118.437 33.644 118.101 34.508C117.765 35.372 117.333 36.128 116.805 36.776C115.653 38.168 113.901 38.864 111.549 38.864C109.965 38.864 108.609 38.408 107.481 37.496C106.377 36.584 105.825 35.444 105.825 34.076C105.825 33.308 106.077 32.696 106.581 32.24C107.109 31.784 107.817 31.4 108.705 31.088C109.617 30.8 110.673 30.536 111.873 30.296C113.073 30.08 114.357 29.804 115.725 29.468C116.061 28.028 116.289 26.996 116.409 26.372ZM111.513 36.092C112.641 36.092 113.661 35.108 114.573 33.14C113.709 33.308 112.941 33.428 112.269 33.5C111.597 33.596 111.021 33.68 110.541 33.752C109.581 33.896 109.113 34.148 109.137 34.508C109.137 34.964 109.401 35.348 109.929 35.66C110.481 35.972 111.009 36.116 111.513 36.092Z"
          fill="#E5F0FF"/>
</svg>
