<svg width="75" height="75" viewBox="0 0 75 75" fill="none" xmlns="http://www.w3.org/2000/svg">
    <g clip-path="url(#clip0_11_156)">
        <path d="M38.1708 48.9584C44.8939 48.9584 50.3441 43.5083 50.3441 36.7852C50.3441 30.0621 44.8939 24.6119 38.1708 24.6119C31.4477 24.6119 25.9976 30.0621 25.9976 36.7852C25.9976 43.5083 31.4477 48.9584 38.1708 48.9584Z"
              fill="#A0616A"/>
        <path d="M28.0952 51.6843L30.6328 45.1993L43.7437 43.2256L45.1524 57.5809L31.9005 57.8629L28.0952 51.6843Z"
              fill="#A0616A"/>
        <path d="M50.4619 39.0312C50.3039 39.6641 49.9845 41.1712 49.4858 41.1786C49.0783 41.1845 48.6883 34.6465 49.0953 33.565C49.5629 32.3226 48.3342 30.751 47.4086 29.9443C45.7445 28.4937 42.0505 31.6085 38.2943 30.1975C38.1947 30.1601 38.2146 30.1643 37.0284 29.6911C33.3785 28.2348 33.1867 28.1928 32.9776 28.172C31.2082 27.997 29.049 29.4448 28.1672 31.2102C27.2506 33.0452 28.0165 34.6191 27.1545 39.0586C27.0541 39.5761 26.8963 40.3136 26.6482 40.3245C26.1945 40.3443 25.7515 37.9211 25.6355 37.2864C25.1494 34.6273 24.6807 32.0636 25.6355 29.1847C25.7396 28.8708 26.3815 27.7053 27.6609 25.3871C29.5041 22.0476 30.4311 20.3715 30.699 20.0704C32.6203 17.9097 36.1176 15.9387 39.0538 16.7791C40.5379 17.2039 40.2718 17.8867 42.0919 18.5513C45.3356 19.7356 48.1546 18.2873 48.6745 19.3109C48.95 19.8531 48.1794 20.3001 48.1682 21.3363C48.149 23.1142 50.3976 23.628 51.7126 25.3871C52.4196 26.3328 53.6296 26.3429 50.4619 39.0312L50.4619 39.0312V39.0312Z"
              fill="#2F2E41"/>
        <path d="M65.5432 62.3981C65.0526 62.9493 64.5436 63.4893 64.0164 64.0166C56.9337 71.0992 47.5164 75 37.4999 75C28.8425 75 20.6334 72.086 13.9919 66.7218C13.9877 66.7191 13.9849 66.7162 13.9807 66.7119C13.0996 66.0015 12.2467 65.2458 11.4233 64.4479C11.4388 64.3238 11.4558 64.2012 11.4741 64.0799C11.5897 63.2622 11.718 62.4826 11.8618 61.765C13.0389 55.8835 28.5281 49.7087 28.9313 49.5479C28.937 49.5465 28.9398 49.5452 28.9398 49.5452C28.9398 49.5452 30.9332 56.8929 39.475 56.7985C45.2932 56.735 44.1654 49.5452 44.1654 49.5452C44.1654 49.5452 44.2358 49.5592 44.3684 49.5874C46.0488 49.9441 57.7161 52.5071 62.319 56.0048C63.7217 57.0705 64.7283 59.3403 65.4515 62.047C65.4825 62.1626 65.5121 62.281 65.5432 62.3981Z"
              fill="#E5F0FF"/>
        <path d="M64.0165 10.9836C56.9338 3.90097 47.5165 0 37.5 0C27.4835 0 18.0663 3.90097 10.9835 10.9836C3.90087 18.0663 0 27.4836 0 37.5C0 46.6425 3.24954 55.2857 9.20442 62.1105C9.77257 62.7632 10.3661 63.399 10.9835 64.0166C11.1288 64.1617 11.2754 64.3069 11.4234 64.4479C12.2467 65.2458 13.0996 66.0015 13.9808 66.7119C13.985 66.7162 13.9878 66.7191 13.992 66.7218C20.6335 72.086 28.8426 75 37.5 75C47.5165 75 56.9338 71.0992 64.0165 64.0166C64.5437 63.4893 65.0526 62.9493 65.5433 62.3981C71.6574 55.5297 75 46.7722 75 37.5C75 27.4836 71.0992 18.0663 64.0165 10.9836ZM65.4516 62.047C64.3421 63.3088 63.1494 64.4958 61.8806 65.5969C59.4742 67.6904 56.7956 69.4779 53.907 70.9019C52.8933 71.4023 51.8543 71.8576 50.7914 72.2651C46.6621 73.8497 42.1804 74.718 37.5 74.718C32.9831 74.718 28.6523 73.9089 24.6443 72.4287C22.999 71.8224 21.4088 71.1021 19.8821 70.2773C19.6579 70.1561 19.4352 70.0334 19.2138 69.908C18.0493 69.2481 16.9229 68.5278 15.8417 67.7496C14.2923 66.6387 12.8318 65.4108 11.4741 64.0799C10.7129 63.3341 9.98544 62.5574 9.29043 61.7496C3.67811 55.2308 0.281955 46.7552 0.281955 37.5C0.281955 16.978 16.9779 0.281955 37.5 0.281955C58.0221 0.281955 74.718 16.978 74.718 37.5C74.718 46.8976 71.2176 55.4916 65.4516 62.047Z"
              fill="#3F3D56"/>
    </g>
    <defs>
        <clipPath id="clip0_11_156">
            <rect width="75" height="75" fill="white"/>
        </clipPath>
    </defs>
</svg>
